<?xml version="1.0" ?><svg enable-background="new 0 0 208 208" id="whatsup" version="1.1" viewBox="0 0 208 208" xml:space="preserve" xmlns="http://www.w3.org/2000/svg" xmlns:xlink="http://www.w3.org/1999/xlink"><g><path d="M104,0C46.6523,0,0,46.6524,0,104c0,19.5624,5.4375,38.5548,15.7459,55.0468   c-4.1052,14.3948-11.5272,41.6172-11.6052,41.9024c-0.3828,1.4064,0.0273,2.91,1.078,3.9256   c1.0508,1.012,2.5704,1.3712,3.9568,0.9496l41.2228-12.6836C66.5467,202.8672,85.0391,208,104,208c57.3475,0,104-46.6524,104-104   S161.3475,0,104,0z M104,200c-18.0745,0-35.6837-5.0508-50.9257-14.6056c-0.6448-0.4024-1.3828-0.6092-2.1252-0.6092   c-0.3944,0-0.7928,0.0584-1.1756,0.1756l-35.9964,11.0784c2.6448-9.6525,7.3949-26.918,10.1524-36.5196   c0.3204-1.1132,0.1408-2.3124-0.488-3.2852C13.34,140.6916,8,122.6288,8,104C8,51.0664,51.0663,8,104,8c52.9335,0,96,43.0664,96,96   S156.9335,200,104,200z"/><path d="M171.9415,128.504c-7.3832-4.1016-13.672-8.2112-18.262-11.2112c-3.504-2.2888-6.0352-3.9412-7.8904-4.8708   c-5.1876-2.59-9.1211-0.758-10.6171,0.75c-0.1877,0.1872-0.3557,0.3904-0.5,0.6092c-5.3869,8.082-12.4261,15.8164-14.4845,16.2304   c-2.3792-0.3708-13.5195-6.7032-24.594-15.9256c-11.3044-9.422-18.414-18.4416-19.4608-24.582C83.3867,82.0392,86,77.3436,86,72   c0-5.508-12.8477-28.504-15.172-30.828c-2.332-2.3284-7.5821-2.6916-15.6133-1.094c-0.7732,0.1564-1.4844,0.5352-2.0427,1.094   c-0.9729,0.9724-23.7149,24.16-12.9065,52.2656c11.8632,30.8436,42.3164,66.6952,81.1408,72.5196   c4.41,0.66,8.5468,0.988,12.4217,0.988c22.84,0,36.3203-11.492,40.1171-34.2888   C174.2227,130.9884,173.4219,129.3244,171.9415,128.504z M122.5935,158.0428c-41.0544-6.156-66.918-46.832-74.8592-67.4804   c-7.8788-20.4804,6.6524-38.738,10.3008-42.8672c2.9689-0.5036,6.09-0.7148,7.3944-0.5116C68.1523,50.9728,77.5859,68.7928,78,72   c0,2.1016-0.6837,5.0236-8.828,13.172C68.4219,85.922,68,86.9376,68,88c0,20.9452,44.1755,50,52,50   c6.8047,0,15.6755-11.4376,20.7263-18.8868c0.2932,0.0116,0.7852,0.1132,1.4844,0.4648c1.4416,0.7228,3.9376,2.3516,7.094,4.414   c4.168,2.7228,9.7033,6.34,16.238,10.086C162.5743,148.3592,154.2811,162.8048,122.5935,158.0428z"/></g></svg>